<?xml version="1.0" standalone="no"?>
<!DOCTYPE svg PUBLIC "-//W3C//DTD SVG 1.1//EN"
"http://www.w3.org/Graphics/SVG/1.1/DTD/svg11.dtd">
<svg width="30cm" height="40cm" viewBox="0 0 670 535"
xmlns="http://www.w3.org/2000/svg" version="1.1">
<desc>Example circle01 - circle filled with red and stroked with blue</desc>
null<rect x="0" y="0" width="61" height="102" style="fill:none;stroke:black;stroke-width:5" />15 20/<circle cx="15" cy="20" r="6" stroke="black" stroke-width="1" fill="black" /> 15 82/<circle cx="15" cy="82" r="6" stroke="black" stroke-width="1" fill="black" /> <rect x="67" y="0" width="61" height="102" style="fill:none;stroke:black;stroke-width:5" />82 20/<circle cx="82" cy="20" r="6" stroke="black" stroke-width="1" fill="black" /> <rect x="134" y="0" width="61" height="102" style="fill:none;stroke:black;stroke-width:5" />180 20/<circle cx="180" cy="20" r="6" stroke="black" stroke-width="1" fill="black" /> 149 51/<circle cx="149" cy="51" r="6" stroke="black" stroke-width="1" fill="black" /> 180 51/<circle cx="180" cy="51" r="6" stroke="black" stroke-width="1" fill="black" /> <rect x="201" y="0" width="61" height="102" style="fill:none;stroke:black;stroke-width:5" />216 20/<circle cx="216" cy="20" r="6" stroke="black" stroke-width="1" fill="black" /> 247 20/<circle cx="247" cy="20" r="6" stroke="black" stroke-width="1" fill="black" /> 247 51/<circle cx="247" cy="51" r="6" stroke="black" stroke-width="1" fill="black" /> <rect x="268" y="0" width="61" height="102" style="fill:none;stroke:black;stroke-width:5" />314 20/<circle cx="314" cy="20" r="6" stroke="black" stroke-width="1" fill="black" /> 283 51/<circle cx="283" cy="51" r="6" stroke="black" stroke-width="1" fill="black" /> 283 82/<circle cx="283" cy="82" r="6" stroke="black" stroke-width="1" fill="black" /> 314 82/<circle cx="314" cy="82" r="6" stroke="black" stroke-width="1" fill="black" /> <rect x="335" y="0" width="61" height="102" style="fill:none;stroke:black;stroke-width:5" />350 20/<circle cx="350" cy="20" r="6" stroke="black" stroke-width="1" fill="black" /> 381 20/<circle cx="381" cy="20" r="6" stroke="black" stroke-width="1" fill="black" /> 350 51/<circle cx="350" cy="51" r="6" stroke="black" stroke-width="1" fill="black" /> 350 82/<circle cx="350" cy="82" r="6" stroke="black" stroke-width="1" fill="black" /> 381 82/<circle cx="381" cy="82" r="6" stroke="black" stroke-width="1" fill="black" /> <rect x="402" y="0" width="61" height="102" style="fill:none;stroke:black;stroke-width:5" /><rect x="469" y="0" width="61" height="102" style="fill:none;stroke:black;stroke-width:5" />484 20/<circle cx="484" cy="20" r="6" stroke="black" stroke-width="1" fill="black" /> 515 51/<circle cx="515" cy="51" r="6" stroke="black" stroke-width="1" fill="black" /> 484 82/<circle cx="484" cy="82" r="6" stroke="black" stroke-width="1" fill="black" /> <rect x="536" y="0" width="61" height="102" style="fill:none;stroke:black;stroke-width:5" />551 51/<circle cx="551" cy="51" r="6" stroke="black" stroke-width="1" fill="black" /> 551 51/<circle cx="551" cy="51" r="6" stroke="black" stroke-width="1" fill="black" /> 582 51/<circle cx="582" cy="51" r="6" stroke="black" stroke-width="1" fill="black" /> <rect x="603" y="0" width="61" height="102" style="fill:none;stroke:black;stroke-width:5" />618 20/<circle cx="618" cy="20" r="6" stroke="black" stroke-width="1" fill="black" /> 649 51/<circle cx="649" cy="51" r="6" stroke="black" stroke-width="1" fill="black" /> 618 82/<circle cx="618" cy="82" r="6" stroke="black" stroke-width="1" fill="black" /> <rect x="0" y="108" width="61" height="102" style="fill:none;stroke:black;stroke-width:5" />46 128/<circle cx="46" cy="128" r="6" stroke="black" stroke-width="1" fill="black" /> 15 159/<circle cx="15" cy="159" r="6" stroke="black" stroke-width="1" fill="black" /> 46 159/<circle cx="46" cy="159" r="6" stroke="black" stroke-width="1" fill="black" /> 15 190/<circle cx="15" cy="190" r="6" stroke="black" stroke-width="1" fill="black" /> 46 190/<circle cx="46" cy="190" r="6" stroke="black" stroke-width="1" fill="black" /> <rect x="67" y="108" width="61" height="102" style="fill:none;stroke:black;stroke-width:5" />82 128/<circle cx="82" cy="128" r="6" stroke="black" stroke-width="1" fill="black" /> 113 128/<circle cx="113" cy="128" r="6" stroke="black" stroke-width="1" fill="black" /> 113 159/<circle cx="113" cy="159" r="6" stroke="black" stroke-width="1" fill="black" /> 82 190/<circle cx="82" cy="190" r="6" stroke="black" stroke-width="1" fill="black" /> <rect x="134" y="108" width="61" height="102" style="fill:none;stroke:black;stroke-width:5" />180 128/<circle cx="180" cy="128" r="6" stroke="black" stroke-width="1" fill="black" /> 149 159/<circle cx="149" cy="159" r="6" stroke="black" stroke-width="1" fill="black" /> <rect x="201" y="108" width="61" height="102" style="fill:none;stroke:black;stroke-width:5" />216 128/<circle cx="216" cy="128" r="6" stroke="black" stroke-width="1" fill="black" /> 216 190/<circle cx="216" cy="190" r="6" stroke="black" stroke-width="1" fill="black" /> <rect x="268" y="108" width="61" height="102" style="fill:none;stroke:black;stroke-width:5" /><rect x="335" y="108" width="61" height="102" style="fill:none;stroke:black;stroke-width:5" />381 128/<circle cx="381" cy="128" r="6" stroke="black" stroke-width="1" fill="black" /> 350 159/<circle cx="350" cy="159" r="6" stroke="black" stroke-width="1" fill="black" /> 381 159/<circle cx="381" cy="159" r="6" stroke="black" stroke-width="1" fill="black" /> <rect x="402" y="108" width="61" height="102" style="fill:none;stroke:black;stroke-width:5" />417 128/<circle cx="417" cy="128" r="6" stroke="black" stroke-width="1" fill="black" /> 448 159/<circle cx="448" cy="159" r="6" stroke="black" stroke-width="1" fill="black" /> <rect x="469" y="108" width="61" height="102" style="fill:none;stroke:black;stroke-width:5" />484 128/<circle cx="484" cy="128" r="6" stroke="black" stroke-width="1" fill="black" /> 484 159/<circle cx="484" cy="159" r="6" stroke="black" stroke-width="1" fill="black" /> 484 190/<circle cx="484" cy="190" r="6" stroke="black" stroke-width="1" fill="black" /> <rect x="536" y="108" width="61" height="102" style="fill:none;stroke:black;stroke-width:5" />551 128/<circle cx="551" cy="128" r="6" stroke="black" stroke-width="1" fill="black" /> <rect x="603" y="108" width="61" height="102" style="fill:none;stroke:black;stroke-width:5" />618 128/<circle cx="618" cy="128" r="6" stroke="black" stroke-width="1" fill="black" /> 649 159/<circle cx="649" cy="159" r="6" stroke="black" stroke-width="1" fill="black" /> <rect x="0" y="216" width="61" height="102" style="fill:none;stroke:black;stroke-width:5" />46 236/<circle cx="46" cy="236" r="6" stroke="black" stroke-width="1" fill="black" /> 15 267/<circle cx="15" cy="267" r="6" stroke="black" stroke-width="1" fill="black" /> 46 267/<circle cx="46" cy="267" r="6" stroke="black" stroke-width="1" fill="black" /> 15 298/<circle cx="15" cy="298" r="6" stroke="black" stroke-width="1" fill="black" /> 46 298/<circle cx="46" cy="298" r="6" stroke="black" stroke-width="1" fill="black" /> <rect x="67" y="216" width="61" height="102" style="fill:none;stroke:black;stroke-width:5" /><rect x="134" y="216" width="61" height="102" style="fill:none;stroke:black;stroke-width:5" />149 236/<circle cx="149" cy="236" r="6" stroke="black" stroke-width="1" fill="black" /> 180 267/<circle cx="180" cy="267" r="6" stroke="black" stroke-width="1" fill="black" /> 149 298/<circle cx="149" cy="298" r="6" stroke="black" stroke-width="1" fill="black" /> 180 298/<circle cx="180" cy="298" r="6" stroke="black" stroke-width="1" fill="black" /> <rect x="201" y="216" width="61" height="102" style="fill:none;stroke:black;stroke-width:5" />216 236/<circle cx="216" cy="236" r="6" stroke="black" stroke-width="1" fill="black" /> 247 236/<circle cx="247" cy="236" r="6" stroke="black" stroke-width="1" fill="black" /> 247 267/<circle cx="247" cy="267" r="6" stroke="black" stroke-width="1" fill="black" /> 216 298/<circle cx="216" cy="298" r="6" stroke="black" stroke-width="1" fill="black" /> <rect x="268" y="216" width="61" height="102" style="fill:none;stroke:black;stroke-width:5" />283 236/<circle cx="283" cy="236" r="6" stroke="black" stroke-width="1" fill="black" /> <rect x="335" y="216" width="61" height="102" style="fill:none;stroke:black;stroke-width:5" />381 236/<circle cx="381" cy="236" r="6" stroke="black" stroke-width="1" fill="black" /> 350 267/<circle cx="350" cy="267" r="6" stroke="black" stroke-width="1" fill="black" /> 381 267/<circle cx="381" cy="267" r="6" stroke="black" stroke-width="1" fill="black" /> 350 298/<circle cx="350" cy="298" r="6" stroke="black" stroke-width="1" fill="black" /> 381 298/<circle cx="381" cy="298" r="6" stroke="black" stroke-width="1" fill="black" /> <rect x="402" y="216" width="61" height="102" style="fill:none;stroke:black;stroke-width:5" />448 236/<circle cx="448" cy="236" r="6" stroke="black" stroke-width="1" fill="black" /> 417 267/<circle cx="417" cy="267" r="6" stroke="black" stroke-width="1" fill="black" /> 448 267/<circle cx="448" cy="267" r="6" stroke="black" stroke-width="1" fill="black" /> 417 298/<circle cx="417" cy="298" r="6" stroke="black" stroke-width="1" fill="black" /> 448 298/<circle cx="448" cy="298" r="6" stroke="black" stroke-width="1" fill="black" /> <rect x="469" y="216" width="61" height="102" style="fill:none;stroke:black;stroke-width:5" /><rect x="536" y="216" width="61" height="102" style="fill:none;stroke:black;stroke-width:5" />551 236/<circle cx="551" cy="236" r="6" stroke="black" stroke-width="1" fill="black" /> 551 267/<circle cx="551" cy="267" r="6" stroke="black" stroke-width="1" fill="black" /> 582 236/<circle cx="582" cy="236" r="6" stroke="black" stroke-width="1" fill="black" /> 582 267/<circle cx="582" cy="267" r="6" stroke="black" stroke-width="1" fill="black" /> <rect x="603" y="216" width="61" height="102" style="fill:none;stroke:black;stroke-width:5" />618 236/<circle cx="618" cy="236" r="6" stroke="black" stroke-width="1" fill="black" /> 649 236/<circle cx="649" cy="236" r="6" stroke="black" stroke-width="1" fill="black" /> 649 267/<circle cx="649" cy="267" r="6" stroke="black" stroke-width="1" fill="black" /> <rect x="0" y="324" width="61" height="102" style="fill:none;stroke:black;stroke-width:5" />15 344/<circle cx="15" cy="344" r="6" stroke="black" stroke-width="1" fill="black" /> 46 375/<circle cx="46" cy="375" r="6" stroke="black" stroke-width="1" fill="black" /> <rect x="67" y="324" width="61" height="102" style="fill:none;stroke:black;stroke-width:5" /><rect x="134" y="324" width="61" height="102" style="fill:none;stroke:black;stroke-width:5" />180 344/<circle cx="180" cy="344" r="6" stroke="black" stroke-width="1" fill="black" /> 149 375/<circle cx="149" cy="375" r="6" stroke="black" stroke-width="1" fill="black" /> 149 406/<circle cx="149" cy="406" r="6" stroke="black" stroke-width="1" fill="black" /> <rect x="201" y="324" width="61" height="102" style="fill:none;stroke:black;stroke-width:5" />247 344/<circle cx="247" cy="344" r="6" stroke="black" stroke-width="1" fill="black" /> 216 375/<circle cx="216" cy="375" r="6" stroke="black" stroke-width="1" fill="black" /> <rect x="268" y="324" width="61" height="102" style="fill:none;stroke:black;stroke-width:5" />283 344/<circle cx="283" cy="344" r="6" stroke="black" stroke-width="1" fill="black" /> 314 344/<circle cx="314" cy="344" r="6" stroke="black" stroke-width="1" fill="black" /> 314 375/<circle cx="314" cy="375" r="6" stroke="black" stroke-width="1" fill="black" /> <rect x="335" y="324" width="61" height="102" style="fill:none;stroke:black;stroke-width:5" />381 344/<circle cx="381" cy="344" r="6" stroke="black" stroke-width="1" fill="black" /> 350 375/<circle cx="350" cy="375" r="6" stroke="black" stroke-width="1" fill="black" /> <rect x="402" y="324" width="61" height="102" style="fill:none;stroke:black;stroke-width:5" />448 344/<circle cx="448" cy="344" r="6" stroke="black" stroke-width="1" fill="black" /> 417 375/<circle cx="417" cy="375" r="6" stroke="black" stroke-width="1" fill="black" /> 448 375/<circle cx="448" cy="375" r="6" stroke="black" stroke-width="1" fill="black" /> 417 406/<circle cx="417" cy="406" r="6" stroke="black" stroke-width="1" fill="black" /> 448 406/<circle cx="448" cy="406" r="6" stroke="black" stroke-width="1" fill="black" /> <rect x="469" y="324" width="61" height="102" style="fill:none;stroke:black;stroke-width:5" /><rect x="536" y="324" width="61" height="102" style="fill:none;stroke:black;stroke-width:5" />551 344/<circle cx="551" cy="344" r="6" stroke="black" stroke-width="1" fill="black" /> 582 344/<circle cx="582" cy="344" r="6" stroke="black" stroke-width="1" fill="black" /> 551 375/<circle cx="551" cy="375" r="6" stroke="black" stroke-width="1" fill="black" /> <rect x="603" y="324" width="61" height="102" style="fill:none;stroke:black;stroke-width:5" />618 344/<circle cx="618" cy="344" r="6" stroke="black" stroke-width="1" fill="black" /> <rect x="0" y="432" width="61" height="102" style="fill:none;stroke:black;stroke-width:5" />15 452/<circle cx="15" cy="452" r="6" stroke="black" stroke-width="1" fill="black" /> 46 483/<circle cx="46" cy="483" r="6" stroke="black" stroke-width="1" fill="black" /> 15 514/<circle cx="15" cy="514" r="6" stroke="black" stroke-width="1" fill="black" /> 46 514/<circle cx="46" cy="514" r="6" stroke="black" stroke-width="1" fill="black" /> <rect x="67" y="432" width="61" height="102" style="fill:none;stroke:black;stroke-width:5" />82 452/<circle cx="82" cy="452" r="6" stroke="black" stroke-width="1" fill="black" /> <rect x="134" y="432" width="61" height="102" style="fill:none;stroke:black;stroke-width:5" />149 452/<circle cx="149" cy="452" r="6" stroke="black" stroke-width="1" fill="black" /> 180 452/<circle cx="180" cy="452" r="6" stroke="black" stroke-width="1" fill="black" /> 180 483/<circle cx="180" cy="483" r="6" stroke="black" stroke-width="1" fill="black" /> 149 514/<circle cx="149" cy="514" r="6" stroke="black" stroke-width="1" fill="black" /> <rect x="201" y="432" width="61" height="102" style="fill:none;stroke:black;stroke-width:5" /><rect x="268" y="432" width="61" height="102" style="fill:none;stroke:black;stroke-width:5" /><rect x="335" y="432" width="61" height="102" style="fill:none;stroke:black;stroke-width:5" /><rect x="402" y="432" width="61" height="102" style="fill:none;stroke:black;stroke-width:5" /><rect x="469" y="432" width="61" height="102" style="fill:none;stroke:black;stroke-width:5" /><rect x="536" y="432" width="61" height="102" style="fill:none;stroke:black;stroke-width:5" /><rect x="603" y="432" width="61" height="102" style="fill:none;stroke:black;stroke-width:5" />
</svg>