<?xml version="1.0" standalone="no"?>
<!DOCTYPE svg PUBLIC "-//W3C//DTD SVG 1.1//EN"
"http://www.w3.org/Graphics/SVG/1.1/DTD/svg11.dtd">
<svg width="30cm" height="40cm" viewBox="0 0 670 107"
xmlns="http://www.w3.org/2000/svg" version="1.1">
<desc>Example circle01 - circle filled with red and stroked with blue</desc>
null<rect x="0" y="0" width="61" height="102" style="fill:none;stroke:black;stroke-width:5" />15 20/<circle cx="15" cy="20" r="6" stroke="black" stroke-width="1" fill="black" /> 15 51/<circle cx="15" cy="51" r="6" stroke="black" stroke-width="1" fill="black" /> <rect x="67" y="0" width="61" height="102" style="fill:none;stroke:black;stroke-width:5" />82 20/<circle cx="82" cy="20" r="6" stroke="black" stroke-width="1" fill="black" /> <rect x="134" y="0" width="61" height="102" style="fill:none;stroke:black;stroke-width:5" />149 20/<circle cx="149" cy="20" r="6" stroke="black" stroke-width="1" fill="black" /> 180 20/<circle cx="180" cy="20" r="6" stroke="black" stroke-width="1" fill="black" /> 149 82/<circle cx="149" cy="82" r="6" stroke="black" stroke-width="1" fill="black" /> <rect x="201" y="0" width="61" height="102" style="fill:none;stroke:black;stroke-width:5" /><rect x="268" y="0" width="61" height="102" style="fill:none;stroke:black;stroke-width:5" />283 20/<circle cx="283" cy="20" r="6" stroke="black" stroke-width="1" fill="black" /> 283 51/<circle cx="283" cy="51" r="6" stroke="black" stroke-width="1" fill="black" /> <rect x="335" y="0" width="61" height="102" style="fill:none;stroke:black;stroke-width:5" />350 20/<circle cx="350" cy="20" r="6" stroke="black" stroke-width="1" fill="black" /> <rect x="402" y="0" width="61" height="102" style="fill:none;stroke:black;stroke-width:5" />417 20/<circle cx="417" cy="20" r="6" stroke="black" stroke-width="1" fill="black" /> 448 20/<circle cx="448" cy="20" r="6" stroke="black" stroke-width="1" fill="black" /> 417 82/<circle cx="417" cy="82" r="6" stroke="black" stroke-width="1" fill="black" /> <rect x="469" y="0" width="61" height="102" style="fill:none;stroke:black;stroke-width:5" /><rect x="536" y="0" width="61" height="102" style="fill:none;stroke:black;stroke-width:5" /><rect x="603" y="0" width="61" height="102" style="fill:none;stroke:black;stroke-width:5" />
</svg>