<?xml version="1.0" standalone="no"?>
<!DOCTYPE svg PUBLIC "-//W3C//DTD SVG 1.1//EN"
"http://www.w3.org/Graphics/SVG/1.1/DTD/svg11.dtd">
<svg width="30cm" height="40cm" viewBox="0 0 2278 107"
xmlns="http://www.w3.org/2000/svg" version="1.1">
<desc>Example circle01 - circle filled with red and stroked with blue</desc>
null<rect x="0" y="0" width="61" height="102" style="fill:none;stroke:black;stroke-width:5" />15 20/<circle cx="15" cy="20" r="6" stroke="black" stroke-width="1" fill="black" /> 46 20/<circle cx="46" cy="20" r="6" stroke="black" stroke-width="1" fill="black" /> 15 51/<circle cx="15" cy="51" r="6" stroke="black" stroke-width="1" fill="black" /> <rect x="67" y="0" width="61" height="102" style="fill:none;stroke:black;stroke-width:5" />113 20/<circle cx="113" cy="20" r="6" stroke="black" stroke-width="1" fill="black" /> 82 51/<circle cx="82" cy="51" r="6" stroke="black" stroke-width="1" fill="black" /> 82 82/<circle cx="82" cy="82" r="6" stroke="black" stroke-width="1" fill="black" /> <rect x="134" y="0" width="61" height="102" style="fill:none;stroke:black;stroke-width:5" />149 51/<circle cx="149" cy="51" r="6" stroke="black" stroke-width="1" fill="black" /> 180 20/<circle cx="180" cy="20" r="6" stroke="black" stroke-width="1" fill="black" /> 180 51/<circle cx="180" cy="51" r="6" stroke="black" stroke-width="1" fill="black" /> <rect x="201" y="0" width="61" height="102" style="fill:none;stroke:black;stroke-width:5" />216 20/<circle cx="216" cy="20" r="6" stroke="black" stroke-width="1" fill="black" /> 247 20/<circle cx="247" cy="20" r="6" stroke="black" stroke-width="1" fill="black" /> 216 51/<circle cx="216" cy="51" r="6" stroke="black" stroke-width="1" fill="black" /> 247 51/<circle cx="247" cy="51" r="6" stroke="black" stroke-width="1" fill="black" /> <rect x="268" y="0" width="61" height="102" style="fill:none;stroke:black;stroke-width:5" />283 20/<circle cx="283" cy="20" r="6" stroke="black" stroke-width="1" fill="black" /> <rect x="335" y="0" width="61" height="102" style="fill:none;stroke:black;stroke-width:5" />381 20/<circle cx="381" cy="20" r="6" stroke="black" stroke-width="1" fill="black" /> 350 51/<circle cx="350" cy="51" r="6" stroke="black" stroke-width="1" fill="black" /> 350 82/<circle cx="350" cy="82" r="6" stroke="black" stroke-width="1" fill="black" /> <rect x="402" y="0" width="61" height="102" style="fill:none;stroke:black;stroke-width:5" />417 51/<circle cx="417" cy="51" r="6" stroke="black" stroke-width="1" fill="black" /> 448 20/<circle cx="448" cy="20" r="6" stroke="black" stroke-width="1" fill="black" /> 448 51/<circle cx="448" cy="51" r="6" stroke="black" stroke-width="1" fill="black" /> <rect x="469" y="0" width="61" height="102" style="fill:none;stroke:black;stroke-width:5" /><rect x="536" y="0" width="61" height="102" style="fill:none;stroke:black;stroke-width:5" /><rect x="603" y="0" width="61" height="102" style="fill:none;stroke:black;stroke-width:5" />618 20/<circle cx="618" cy="20" r="6" stroke="black" stroke-width="1" fill="black" /> 649 20/<circle cx="649" cy="20" r="6" stroke="black" stroke-width="1" fill="black" /> 618 51/<circle cx="618" cy="51" r="6" stroke="black" stroke-width="1" fill="black" /> 649 51/<circle cx="649" cy="51" r="6" stroke="black" stroke-width="1" fill="black" /> <rect x="670" y="0" width="61" height="102" style="fill:none;stroke:black;stroke-width:5" />685 20/<circle cx="685" cy="20" r="6" stroke="black" stroke-width="1" fill="black" /> <rect x="737" y="0" width="61" height="102" style="fill:none;stroke:black;stroke-width:5" />783 20/<circle cx="783" cy="20" r="6" stroke="black" stroke-width="1" fill="black" /> 752 51/<circle cx="752" cy="51" r="6" stroke="black" stroke-width="1" fill="black" /> 752 82/<circle cx="752" cy="82" r="6" stroke="black" stroke-width="1" fill="black" /> <rect x="804" y="0" width="61" height="102" style="fill:none;stroke:black;stroke-width:5" />819 51/<circle cx="819" cy="51" r="6" stroke="black" stroke-width="1" fill="black" /> 850 20/<circle cx="850" cy="20" r="6" stroke="black" stroke-width="1" fill="black" /> 850 51/<circle cx="850" cy="51" r="6" stroke="black" stroke-width="1" fill="black" /> <rect x="871" y="0" width="61" height="102" style="fill:none;stroke:black;stroke-width:5" />886 20/<circle cx="886" cy="20" r="6" stroke="black" stroke-width="1" fill="black" /> 917 20/<circle cx="917" cy="20" r="6" stroke="black" stroke-width="1" fill="black" /> 886 51/<circle cx="886" cy="51" r="6" stroke="black" stroke-width="1" fill="black" /> 917 51/<circle cx="917" cy="51" r="6" stroke="black" stroke-width="1" fill="black" /> <rect x="938" y="0" width="61" height="102" style="fill:none;stroke:black;stroke-width:5" />953 20/<circle cx="953" cy="20" r="6" stroke="black" stroke-width="1" fill="black" /> <rect x="1005" y="0" width="61" height="102" style="fill:none;stroke:black;stroke-width:5" /><rect x="1072" y="0" width="61" height="102" style="fill:none;stroke:black;stroke-width:5" /><rect x="1139" y="0" width="61" height="102" style="fill:none;stroke:black;stroke-width:5" />1154 20/<circle cx="1154" cy="20" r="6" stroke="black" stroke-width="1" fill="black" /> <rect x="1206" y="0" width="61" height="102" style="fill:none;stroke:black;stroke-width:5" />1252 20/<circle cx="1252" cy="20" r="6" stroke="black" stroke-width="1" fill="black" /> 1221 51/<circle cx="1221" cy="51" r="6" stroke="black" stroke-width="1" fill="black" /> 1221 82/<circle cx="1221" cy="82" r="6" stroke="black" stroke-width="1" fill="black" /> <rect x="1273" y="0" width="61" height="102" style="fill:none;stroke:black;stroke-width:5" />1288 20/<circle cx="1288" cy="20" r="6" stroke="black" stroke-width="1" fill="black" /> 1288 51/<circle cx="1288" cy="51" r="6" stroke="black" stroke-width="1" fill="black" /> 1319 51/<circle cx="1319" cy="51" r="6" stroke="black" stroke-width="1" fill="black" /> <rect x="1340" y="0" width="61" height="102" style="fill:none;stroke:black;stroke-width:5" /><rect x="1407" y="0" width="61" height="102" style="fill:none;stroke:black;stroke-width:5" /><rect x="1474" y="0" width="61" height="102" style="fill:none;stroke:black;stroke-width:5" /><rect x="1541" y="0" width="61" height="102" style="fill:none;stroke:black;stroke-width:5" /><rect x="1608" y="0" width="61" height="102" style="fill:none;stroke:black;stroke-width:5" /><rect x="1675" y="0" width="61" height="102" style="fill:none;stroke:black;stroke-width:5" /><rect x="1742" y="0" width="61" height="102" style="fill:none;stroke:black;stroke-width:5" /><rect x="1809" y="0" width="61" height="102" style="fill:none;stroke:black;stroke-width:5" /><rect x="1876" y="0" width="61" height="102" style="fill:none;stroke:black;stroke-width:5" /><rect x="1943" y="0" width="61" height="102" style="fill:none;stroke:black;stroke-width:5" /><rect x="2010" y="0" width="61" height="102" style="fill:none;stroke:black;stroke-width:5" /><rect x="2077" y="0" width="61" height="102" style="fill:none;stroke:black;stroke-width:5" /><rect x="2144" y="0" width="61" height="102" style="fill:none;stroke:black;stroke-width:5" /><rect x="2211" y="0" width="61" height="102" style="fill:none;stroke:black;stroke-width:5" />
</svg>