<?xml version="1.0" standalone="no"?>
<!DOCTYPE svg PUBLIC "-//W3C//DTD SVG 1.1//EN"
"http://www.w3.org/Graphics/SVG/1.1/DTD/svg11.dtd">
<svg width="30cm" height="40cm" viewBox="0 0 201 214"
xmlns="http://www.w3.org/2000/svg" version="1.1">
<desc>Example circle01 - circle filled with red and stroked with blue</desc>
null<rect x="0" y="0" width="61" height="102" style="fill:none;stroke:black;stroke-width:5" />15 20/<circle cx="15" cy="20" r="6" stroke="black" stroke-width="1" fill="black" /> 15 51/<circle cx="15" cy="51" r="6" stroke="black" stroke-width="1" fill="black" /> 46 51/<circle cx="46" cy="51" r="6" stroke="black" stroke-width="1" fill="black" /> <rect x="67" y="0" width="61" height="102" style="fill:none;stroke:black;stroke-width:5" />82 20/<circle cx="82" cy="20" r="6" stroke="black" stroke-width="1" fill="black" /> 113 51/<circle cx="113" cy="51" r="6" stroke="black" stroke-width="1" fill="black" /> <rect x="134" y="0" width="61" height="102" style="fill:none;stroke:black;stroke-width:5" />149 20/<circle cx="149" cy="20" r="6" stroke="black" stroke-width="1" fill="black" /> 149 51/<circle cx="149" cy="51" r="6" stroke="black" stroke-width="1" fill="black" /> 149 82/<circle cx="149" cy="82" r="6" stroke="black" stroke-width="1" fill="black" /> <rect x="0" y="108" width="61" height="102" style="fill:none;stroke:black;stroke-width:5" />15 128/<circle cx="15" cy="128" r="6" stroke="black" stroke-width="1" fill="black" /> 15 159/<circle cx="15" cy="159" r="6" stroke="black" stroke-width="1" fill="black" /> 15 190/<circle cx="15" cy="190" r="6" stroke="black" stroke-width="1" fill="black" /> <rect x="67" y="108" width="61" height="102" style="fill:none;stroke:black;stroke-width:5" />82 128/<circle cx="82" cy="128" r="6" stroke="black" stroke-width="1" fill="black" /> 113 159/<circle cx="113" cy="159" r="6" stroke="black" stroke-width="1" fill="black" /> 82 190/<circle cx="82" cy="190" r="6" stroke="black" stroke-width="1" fill="black" /> <rect x="134" y="108" width="61" height="102" style="fill:none;stroke:black;stroke-width:5" />
</svg>