<?xml version="1.0" standalone="no"?>
<!DOCTYPE svg PUBLIC "-//W3C//DTD SVG 1.1//EN"
"http://www.w3.org/Graphics/SVG/1.1/DTD/svg11.dtd">
<svg width="30cm" height="40cm" viewBox="0 0 670 107"
xmlns="http://www.w3.org/2000/svg" version="1.1">
<desc>Example circle01 - circle filled with red and stroked with blue</desc>
null<rect x="0" y="0" width="61" height="102" style="fill:none;stroke:black;stroke-width:5" />15 20/<circle cx="15" cy="20" r="6" stroke="black" stroke-width="1" fill="black" /> <rect x="67" y="0" width="61" height="102" style="fill:none;stroke:black;stroke-width:5" />82 20/<circle cx="82" cy="20" r="6" stroke="black" stroke-width="1" fill="black" /> 82 51/<circle cx="82" cy="51" r="6" stroke="black" stroke-width="1" fill="black" /> <rect x="134" y="0" width="61" height="102" style="fill:none;stroke:black;stroke-width:5" />149 20/<circle cx="149" cy="20" r="6" stroke="black" stroke-width="1" fill="black" /> 180 20/<circle cx="180" cy="20" r="6" stroke="black" stroke-width="1" fill="black" /> <rect x="201" y="0" width="61" height="102" style="fill:none;stroke:black;stroke-width:5" />216 51/<circle cx="216" cy="51" r="6" stroke="black" stroke-width="1" fill="black" /> 247 20/<circle cx="247" cy="20" r="6" stroke="black" stroke-width="1" fill="black" /> 247 51/<circle cx="247" cy="51" r="6" stroke="black" stroke-width="1" fill="black" /> <rect x="268" y="0" width="61" height="102" style="fill:none;stroke:black;stroke-width:5" />283 20/<circle cx="283" cy="20" r="6" stroke="black" stroke-width="1" fill="black" /> 314 51/<circle cx="314" cy="51" r="6" stroke="black" stroke-width="1" fill="black" /> <rect x="335" y="0" width="61" height="102" style="fill:none;stroke:black;stroke-width:5" />350 20/<circle cx="350" cy="20" r="6" stroke="black" stroke-width="1" fill="black" /> 381 20/<circle cx="381" cy="20" r="6" stroke="black" stroke-width="1" fill="black" /> 350 51/<circle cx="350" cy="51" r="6" stroke="black" stroke-width="1" fill="black" /> <rect x="402" y="0" width="61" height="102" style="fill:none;stroke:black;stroke-width:5" />417 20/<circle cx="417" cy="20" r="6" stroke="black" stroke-width="1" fill="black" /> 448 20/<circle cx="448" cy="20" r="6" stroke="black" stroke-width="1" fill="black" /> 417 51/<circle cx="417" cy="51" r="6" stroke="black" stroke-width="1" fill="black" /> 448 51/<circle cx="448" cy="51" r="6" stroke="black" stroke-width="1" fill="black" /> <rect x="469" y="0" width="61" height="102" style="fill:none;stroke:black;stroke-width:5" />484 20/<circle cx="484" cy="20" r="6" stroke="black" stroke-width="1" fill="black" /> 484 51/<circle cx="484" cy="51" r="6" stroke="black" stroke-width="1" fill="black" /> 515 51/<circle cx="515" cy="51" r="6" stroke="black" stroke-width="1" fill="black" /> <rect x="536" y="0" width="61" height="102" style="fill:none;stroke:black;stroke-width:5" />551 51/<circle cx="551" cy="51" r="6" stroke="black" stroke-width="1" fill="black" /> 582 20/<circle cx="582" cy="20" r="6" stroke="black" stroke-width="1" fill="black" /> <rect x="603" y="0" width="61" height="102" style="fill:none;stroke:black;stroke-width:5" />
</svg>