<?xml version="1.0" standalone="no"?>
<!DOCTYPE svg PUBLIC "-//W3C//DTD SVG 1.1//EN"
"http://www.w3.org/Graphics/SVG/1.1/DTD/svg11.dtd">
<svg width="30cm" height="40cm" viewBox="0 0 670 214"
xmlns="http://www.w3.org/2000/svg" version="1.1">
<desc>Example circle01 - circle filled with red and stroked with blue</desc>
null<rect x="0" y="0" width="61" height="102" style="fill:none;stroke:black;stroke-width:5" />15 20/<circle cx="15" cy="20" r="6" stroke="black" stroke-width="1" fill="black" /> 46 20/<circle cx="46" cy="20" r="6" stroke="black" stroke-width="1" fill="black" /> 15 51/<circle cx="15" cy="51" r="6" stroke="black" stroke-width="1" fill="black" /> 15 82/<circle cx="15" cy="82" r="6" stroke="black" stroke-width="1" fill="black" /> 46 82/<circle cx="46" cy="82" r="6" stroke="black" stroke-width="1" fill="black" /> <rect x="67" y="0" width="61" height="102" style="fill:none;stroke:black;stroke-width:5" />82 20/<circle cx="82" cy="20" r="6" stroke="black" stroke-width="1" fill="black" /> 113 20/<circle cx="113" cy="20" r="6" stroke="black" stroke-width="1" fill="black" /> <rect x="134" y="0" width="61" height="102" style="fill:none;stroke:black;stroke-width:5" />149 20/<circle cx="149" cy="20" r="6" stroke="black" stroke-width="1" fill="black" /> 149 82/<circle cx="149" cy="82" r="6" stroke="black" stroke-width="1" fill="black" /> 180 82/<circle cx="180" cy="82" r="6" stroke="black" stroke-width="1" fill="black" /> <rect x="201" y="0" width="61" height="102" style="fill:none;stroke:black;stroke-width:5" />216 20/<circle cx="216" cy="20" r="6" stroke="black" stroke-width="1" fill="black" /> <rect x="268" y="0" width="61" height="102" style="fill:none;stroke:black;stroke-width:5" />283 20/<circle cx="283" cy="20" r="6" stroke="black" stroke-width="1" fill="black" /> 314 20/<circle cx="314" cy="20" r="6" stroke="black" stroke-width="1" fill="black" /> 283 51/<circle cx="283" cy="51" r="6" stroke="black" stroke-width="1" fill="black" /> <rect x="335" y="0" width="61" height="102" style="fill:none;stroke:black;stroke-width:5" />381 20/<circle cx="381" cy="20" r="6" stroke="black" stroke-width="1" fill="black" /> 350 51/<circle cx="350" cy="51" r="6" stroke="black" stroke-width="1" fill="black" /> 350 82/<circle cx="350" cy="82" r="6" stroke="black" stroke-width="1" fill="black" /> 381 82/<circle cx="381" cy="82" r="6" stroke="black" stroke-width="1" fill="black" /> <rect x="402" y="0" width="61" height="102" style="fill:none;stroke:black;stroke-width:5" />417 51/<circle cx="417" cy="51" r="6" stroke="black" stroke-width="1" fill="black" /> 448 20/<circle cx="448" cy="20" r="6" stroke="black" stroke-width="1" fill="black" /> 448 51/<circle cx="448" cy="51" r="6" stroke="black" stroke-width="1" fill="black" /> 448 82/<circle cx="448" cy="82" r="6" stroke="black" stroke-width="1" fill="black" /> <rect x="469" y="0" width="61" height="102" style="fill:none;stroke:black;stroke-width:5" />484 20/<circle cx="484" cy="20" r="6" stroke="black" stroke-width="1" fill="black" /> <rect x="536" y="0" width="61" height="102" style="fill:none;stroke:black;stroke-width:5" />551 20/<circle cx="551" cy="20" r="6" stroke="black" stroke-width="1" fill="black" /> 582 20/<circle cx="582" cy="20" r="6" stroke="black" stroke-width="1" fill="black" /> 551 51/<circle cx="551" cy="51" r="6" stroke="black" stroke-width="1" fill="black" /> <rect x="603" y="0" width="61" height="102" style="fill:none;stroke:black;stroke-width:5" />618 20/<circle cx="618" cy="20" r="6" stroke="black" stroke-width="1" fill="black" /> <rect x="0" y="108" width="61" height="102" style="fill:none;stroke:black;stroke-width:5" />46 128/<circle cx="46" cy="128" r="6" stroke="black" stroke-width="1" fill="black" /> 15 159/<circle cx="15" cy="159" r="6" stroke="black" stroke-width="1" fill="black" /> 15 190/<circle cx="15" cy="190" r="6" stroke="black" stroke-width="1" fill="black" /> 46 190/<circle cx="46" cy="190" r="6" stroke="black" stroke-width="1" fill="black" /> <rect x="67" y="108" width="61" height="102" style="fill:none;stroke:black;stroke-width:5" />82 159/<circle cx="82" cy="159" r="6" stroke="black" stroke-width="1" fill="black" /> 113 128/<circle cx="113" cy="128" r="6" stroke="black" stroke-width="1" fill="black" /> 113 159/<circle cx="113" cy="159" r="6" stroke="black" stroke-width="1" fill="black" /> 113 190/<circle cx="113" cy="190" r="6" stroke="black" stroke-width="1" fill="black" /> <rect x="134" y="108" width="61" height="102" style="fill:none;stroke:black;stroke-width:5" /><rect x="201" y="108" width="61" height="102" style="fill:none;stroke:black;stroke-width:5" /><rect x="268" y="108" width="61" height="102" style="fill:none;stroke:black;stroke-width:5" /><rect x="335" y="108" width="61" height="102" style="fill:none;stroke:black;stroke-width:5" /><rect x="402" y="108" width="61" height="102" style="fill:none;stroke:black;stroke-width:5" /><rect x="469" y="108" width="61" height="102" style="fill:none;stroke:black;stroke-width:5" /><rect x="536" y="108" width="61" height="102" style="fill:none;stroke:black;stroke-width:5" /><rect x="603" y="108" width="61" height="102" style="fill:none;stroke:black;stroke-width:5" />
</svg>